# xmcd
#
# Track frame offsets: 
#        150
#        23040
#        43268
#        64261
#        79474
#        101202
#        115990
#        136683
#        153958
#        171481
#        184489
#
# Disc length: 3003 seconds
#
# Revision: 0
# Processed by: cddbd v1.5.2PL0 Copyright (c) Steve Scherf et al.
# Submitted via: ExactAudioCopy v0.95a5
#
DISCID=9d0bb90b
DTITLE=IL DIVO - The Promise
DYEAR=1900
DGENRE=Pop
TTITLE0=The Power of Love
TTITLE1=LA Promessa
TTITLE2=Adagio
TTITLE3=Hallelujah
TTITLE4=L alba del mondo
TTITLE5=Enamorado
TTITLE6=angelina
TTITLE7=The winner takes it all
TTITLE8=La luna
TTITLE9=She
TTITLE10=Amazing Garce
EXTD=
EXTT0=
EXTT1=
EXTT2=
EXTT3=
EXTT4=
EXTT5=
EXTT6=
EXTT7=
EXTT8=
EXTT9=
EXTT10=
PLAYORDER=
